<svg width="60" height="60" viewBox="0 0 60 60" fill="none" xmlns="http://www.w3.org/2000/svg">
<path d="M60 30C60 46.5685 46.5685 60 30 60C13.4315 60 0 46.5685 0 30C0 13.4315 13.4315 0 30 0C46.5685 0 60 13.4315 60 30Z" fill="#FFCB43"/>
<path d="M30.3785 53.3918C26.6498 53.3918 23.3354 52.8828 20.4354 51.8648C17.5471 50.8586 15.1086 49.3731 13.12 47.4081C11.1314 45.455 9.62214 43.0698 8.59231 40.2526C7.56248 37.4353 7.04165 34.2156 7.02981 30.5935C7.04165 27.0542 7.5684 23.8641 8.61007 21.0232C9.65173 18.1704 11.1728 15.732 13.1733 13.7078C15.1738 11.6718 17.6181 10.1093 20.5064 9.02031C23.3946 7.9313 26.6794 7.38679 30.3608 7.38679C33.8291 7.38679 36.9008 7.91354 39.576 8.96704C42.263 10.0205 44.5298 11.4884 46.3764 13.3705C48.2348 15.2407 49.6375 17.4306 50.5845 19.9401C51.5433 22.4377 52.0227 25.1484 52.0227 28.0722C52.0227 30.0963 51.8688 32.0139 51.5611 33.825C51.2533 35.6242 50.7265 37.2223 49.9808 38.619C49.2469 40.0158 48.2467 41.1285 46.9801 41.9571C45.7135 42.7739 44.1273 43.2178 42.2216 43.2888C41.026 43.348 39.9784 43.2355 39.0788 42.9514C38.1792 42.6673 37.4512 42.2234 36.8949 41.6197C36.3504 41.0042 36.0071 40.2526 35.865 39.3648H35.652C35.3797 40.075 34.8648 40.726 34.1072 41.3179C33.3615 41.8979 32.4382 42.3536 31.3373 42.6851C30.2365 43.0047 29.0113 43.1349 27.6619 43.0757C26.2178 43.0047 24.8802 42.6732 23.6491 42.0814C22.4299 41.4777 21.3646 40.6373 20.4531 39.5601C19.5535 38.4711 18.8551 37.1572 18.3579 35.6183C17.8608 34.0795 17.6122 32.3335 17.6122 30.3804C17.6122 28.4746 17.8845 26.7937 18.429 25.3378C18.9735 23.8818 19.7015 22.6389 20.6129 21.6091C21.5362 20.5793 22.5779 19.7743 23.7379 19.1943C24.8979 18.6025 26.0935 18.2237 27.3246 18.058C28.603 17.8804 29.8044 17.8982 30.929 18.1112C32.0535 18.3243 32.9886 18.6498 33.7344 19.0878C34.4919 19.5258 34.9654 20.0052 35.1548 20.526H35.4034V18.5374H40.3572V35.4408C40.3691 36.3286 40.5821 37.0447 40.9964 37.5892C41.4226 38.1337 42.0144 38.406 42.772 38.406C43.719 38.406 44.4825 38.0331 45.0625 37.2874C45.6543 36.5298 46.0805 35.3697 46.3409 33.8072C46.6131 32.2329 46.7434 30.2206 46.7315 27.7703C46.7434 25.758 46.477 23.9351 45.9325 22.3016C45.3998 20.6562 44.6423 19.2121 43.6598 17.9692C42.6773 16.7263 41.4995 15.6905 40.1264 14.8619C38.7651 14.0215 37.25 13.3882 35.5809 12.9621C33.9119 12.5359 32.1304 12.3229 30.2365 12.3229C27.3364 12.3229 24.7855 12.7668 22.5838 13.6545C20.3821 14.5305 18.5355 15.7793 17.044 17.401C15.5644 19.0227 14.4458 20.9462 13.6882 23.1716C12.9425 25.3851 12.5696 27.8354 12.5696 30.5224C12.5696 33.3989 12.9602 35.9498 13.7415 38.1751C14.5345 40.3887 15.6946 42.253 17.2216 43.7682C18.7486 45.2833 20.6366 46.4315 22.8856 47.2128C25.1465 47.994 27.7448 48.3847 30.6804 48.3847C32.0298 48.3847 33.3497 48.2781 34.6399 48.0651C35.9301 47.852 37.0902 47.6034 38.12 47.3193C39.1498 47.0352 39.9429 46.7867 40.4993 46.5736L42.0085 51.0835C41.2746 51.4623 40.2803 51.8293 39.0256 52.1844C37.7827 52.5395 36.4095 52.8295 34.9062 53.0544C33.4148 53.2793 31.9055 53.3918 30.3785 53.3918ZM29.1356 37.9798C30.639 37.9798 31.8404 37.6898 32.74 37.1098C33.6397 36.5179 34.2848 35.642 34.6754 34.482C35.066 33.3219 35.2554 31.8778 35.2436 30.1496C35.2436 28.5397 35.0424 27.2199 34.6399 26.1901C34.2374 25.1602 33.5923 24.3967 32.7045 23.8996C31.8167 23.4024 30.639 23.1538 29.1711 23.1538C27.8454 23.1538 26.7149 23.4557 25.7798 24.0594C24.8565 24.6631 24.1463 25.4976 23.6491 26.5629C23.1638 27.6164 22.9211 28.8179 22.9211 30.1673C22.9211 31.5168 23.1165 32.7893 23.5071 33.9848C23.9095 35.1685 24.5606 36.1332 25.4602 36.879C26.3717 37.6129 27.5968 37.9798 29.1356 37.9798Z" fill="white"/>
</svg>
