<svg width="64" height="64" viewBox="0 0 64 64" fill="none" xmlns="http://www.w3.org/2000/svg">
<path d="M23.6135 15.3203L17.151 4.16005C17.151 4.16005 15.8585 2.00001 14.9969 2C9.39601 1.99996 6.19608 4.94497 5.51849 6.03207C5.15946 6.60808 2.90954 11.6002 2 14.1683V17.9843C2 18.1283 4.87224 27.7045 5.51849 29.2886C7.19321 33.3936 14.7814 43.9058 18.8026 47.3619C22.3929 51.1779 29.5735 56.1802 34.7024 58.3376C36.2763 58.9997 45.8005 61.9648 45.9442 61.9661L49.7497 62C52.3188 61.1108 57.3171 58.8993 57.8948 58.5444C58.9849 57.8747 61.9502 54.6923 62 49.0764C62.0076 48.2124 59.865 46.8973 59.865 46.8973L48.793 40.3182C48.3643 40.0743 47.3477 39.7293 46.7107 40.2996C46.0738 40.87 42.0463 45.3463 40.1122 47.5132C39.6085 47.6287 38.5313 47.6431 37.6709 47.4915C35.0307 47.0261 26.2393 39.9831 25.6241 39.2977C24.9779 38.5777 16.3612 28.4974 16.3612 26.4085C16.3612 25.5326 16.2415 24.4645 16.3612 23.9605C18.5393 22.0404 23.0391 18.0419 23.6135 17.4083C24.188 16.7747 23.8529 15.7523 23.6135 15.3203Z" fill="#FFCB43" stroke="#FFCB43" stroke-width="3"/>
</svg>
