<svg width="311" height="202" viewBox="0 0 311 202" fill="none" xmlns="http://www.w3.org/2000/svg">
<path d="M107.181 16.1973L137.132 1.64952C138.539 0.966189 140.185 0.980543 141.579 1.68832L170.128 16.1757C171.807 17.0279 172.865 18.7513 172.865 20.6345V58.0753C172.865 59.9163 171.854 61.6084 170.232 62.4798L141.681 77.8206C140.231 78.5995 138.491 78.6152 137.028 77.8626L107.079 62.4602C105.413 61.6034 104.365 59.8872 104.365 58.0138V20.6948C104.365 18.7803 105.459 17.0338 107.181 16.1973Z" stroke="#FDCF46" stroke-width="2"/>
<path d="M211.181 77.1973L241.132 62.6495C242.539 61.9662 244.185 61.9805 245.579 62.6883L274.128 77.1757C275.807 78.0279 276.865 79.7513 276.865 81.6345V119.075C276.865 120.916 275.854 122.608 274.232 123.48L245.681 138.821C244.231 139.6 242.491 139.615 241.028 138.863L211.079 123.46C209.413 122.603 208.365 120.887 208.365 119.014V81.6948C208.365 79.7803 209.459 78.0338 211.181 77.1973Z" stroke="#FDCF46" stroke-width="2"/>
<path d="M245.181 138.197L275.132 123.65C276.539 122.966 278.185 122.981 279.579 123.688L308.128 138.176C309.807 139.028 310.865 140.751 310.865 142.634V180.075C310.865 181.916 309.854 183.608 308.232 184.48L279.681 199.821C278.231 200.6 276.491 200.615 275.028 199.863L245.079 184.46C243.413 183.603 242.365 181.887 242.365 180.014V142.695C242.365 140.78 243.459 139.034 245.181 138.197Z" stroke="#FDCF46" stroke-width="2"/>
<path d="M177.181 138.197L207.132 123.65C208.539 122.966 210.185 122.981 211.579 123.688L240.128 138.176C241.807 139.028 242.865 140.751 242.865 142.634V180.075C242.865 181.916 241.854 183.608 240.232 184.48L211.681 199.821C210.231 200.6 208.491 200.615 207.028 199.863L177.079 184.46C175.413 183.603 174.365 181.887 174.365 180.014V142.695C174.365 140.78 175.459 139.034 177.181 138.197Z" stroke="#FDCF46" stroke-width="2"/>
<path d="M176.181 16.1973L206.132 1.64952C207.539 0.966189 209.185 0.980543 210.579 1.68832L239.128 16.1757C240.807 17.0279 241.865 18.7513 241.865 20.6345V58.0753C241.865 59.9163 240.854 61.6084 239.232 62.4798L210.681 77.8206C209.231 78.5995 207.491 78.6152 206.028 77.8626L176.079 62.4602C174.413 61.6034 173.365 59.8872 173.365 58.0138V20.6948C173.365 18.7803 174.459 17.0338 176.181 16.1973Z" stroke="#FDCF46" stroke-width="2"/>
<path d="M4.18084 77.1973L34.1321 62.6495C35.539 61.9662 37.1846 61.9805 38.5793 62.6883L67.128 77.1757C68.8073 78.0279 69.8654 79.7513 69.8654 81.6345V119.075C69.8654 120.916 68.8537 122.608 67.2319 123.48L38.681 138.821C37.2313 139.6 35.4912 139.615 34.0277 138.863L4.07862 123.46C2.41262 122.603 1.36536 120.887 1.36536 119.014V81.6948C1.36536 79.7803 2.45866 78.0338 4.18084 77.1973Z" stroke="#FDCF46" stroke-width="2"/>
<path d="M73.1808 77.1973L103.132 62.6495C104.539 61.9662 106.185 61.9805 107.579 62.6883L136.128 77.1757C137.807 78.0279 138.865 79.7513 138.865 81.6345V119.075C138.865 120.916 137.854 122.608 136.232 123.48L107.681 138.821C106.231 139.6 104.491 139.615 103.028 138.863L73.0786 123.46C71.4126 122.603 70.3654 120.887 70.3654 119.014V81.6948C70.3654 79.7803 71.4587 78.0338 73.1808 77.1973Z" stroke="#FDCF46" stroke-width="2"/>
<path d="M143.181 77.1973L173.132 62.6495C174.539 61.9662 176.185 61.9805 177.579 62.6883L206.128 77.1757C207.807 78.0279 208.865 79.7513 208.865 81.6345V119.075C208.865 120.916 207.854 122.608 206.232 123.48L177.681 138.821C176.231 139.6 174.491 139.615 173.028 138.863L143.079 123.46C141.413 122.603 140.365 120.887 140.365 119.014V81.6948C140.365 79.7803 141.459 78.0338 143.181 77.1973Z" stroke="#FDCF46" stroke-width="2"/>
<path d="M39.1808 138.197L69.1321 123.65C70.539 122.966 72.1846 122.981 73.5793 123.688L102.128 138.176C103.807 139.028 104.865 140.751 104.865 142.634V180.075C104.865 181.916 103.854 183.608 102.232 184.48L73.681 199.821C72.2313 200.6 70.4912 200.615 69.0277 199.863L39.0786 184.46C37.4126 183.603 36.3654 181.887 36.3654 180.014V142.695C36.3654 140.78 37.4587 139.034 39.1808 138.197Z" stroke="#FDCF46" stroke-width="2"/>
</svg>
