<svg width="360" height="100" viewBox="0 0 360 100" fill="none" xmlns="http://www.w3.org/2000/svg">
<path d="M37.8155 16.6325L67.7668 2.0847C69.1737 1.40137 70.8192 1.41572 72.214 2.1235L100.763 16.6109C102.442 17.4631 103.5 19.1865 103.5 21.0696V58.5105C103.5 60.3515 102.488 62.0436 100.867 62.915L72.3156 78.2558C70.8659 79.0347 69.1258 79.0504 67.6623 78.2978L37.7133 62.8954C36.0473 62.0386 35 60.3224 35 58.449V21.13C35 19.2154 36.0933 17.469 37.8155 16.6325Z" stroke="#FDCF46" stroke-width="2"/>
<path d="M106.815 16.6325L136.767 2.0847C138.174 1.40137 139.819 1.41572 141.214 2.1235L169.763 16.6109C171.442 17.4631 172.5 19.1865 172.5 21.0696V58.5105C172.5 60.3515 171.488 62.0436 169.867 62.915L141.316 78.2558C139.866 79.0347 138.126 79.0504 136.662 78.2978L106.713 62.8954C105.047 62.0386 104 60.3224 104 58.449V21.13C104 19.2154 105.093 17.469 106.815 16.6325Z" stroke="#FDCF46" stroke-width="2"/>
<path d="M3.81548 77.6325L33.7668 63.0847C35.1737 62.4014 36.8192 62.4157 38.214 63.1235L66.7626 77.6109C68.4419 78.4631 69.5 80.1865 69.5 82.0696V119.511C69.5 121.352 68.4883 123.044 66.8666 123.915L38.3156 139.256C36.8659 140.035 35.1258 140.05 33.6623 139.298L3.71326 123.895C2.04726 123.039 1 121.322 1 119.449V82.13C1 80.2154 2.0933 78.469 3.81548 77.6325Z" stroke="#FDCF46" stroke-width="2"/>
<path d="M257.815 19.6325L287.767 5.0847C289.174 4.40137 290.819 4.41572 292.214 5.1235L320.763 19.6109C322.442 20.4631 323.5 22.1865 323.5 24.0696V61.5105C323.5 63.3515 322.488 65.0436 320.867 65.915L292.316 81.2558C290.866 82.0347 289.126 82.0504 287.662 81.2978L257.713 65.8954C256.047 65.0386 255 63.3224 255 61.449V24.13C255 22.2154 256.093 20.469 257.815 19.6325Z" stroke="#FDCF46" stroke-width="2"/>
<path d="M292.815 80.6325L322.767 66.0847C324.174 65.4014 325.819 65.4157 327.214 66.1235L355.763 80.6109C357.442 81.4631 358.5 83.1865 358.5 85.0696V122.511C358.5 124.352 357.488 126.044 355.867 126.915L327.316 142.256C325.866 143.035 324.126 143.05 322.662 142.298L292.713 126.895C291.047 126.039 290 124.322 290 122.449V85.13C290 83.2154 291.093 81.469 292.815 80.6325Z" stroke="#FDCF46" stroke-width="2"/>
</svg>
