<svg width="250" height="261" viewBox="0 0 250 261" fill="none" xmlns="http://www.w3.org/2000/svg">
<path d="M125.965 34.0233L159.145 36.682C160.704 36.807 162.115 37.6545 162.958 38.9724L180.205 65.9397C181.219 67.5262 181.257 69.5483 180.302 71.1711L161.312 103.436C160.378 105.022 158.648 105.967 156.809 105.895L124.433 104.63C122.788 104.566 121.28 103.696 120.401 102.305L102.412 73.8388C101.412 72.255 101.38 70.2446 102.33 68.6302L121.258 36.4707C122.229 34.8208 124.057 33.8704 125.965 34.0233Z" stroke="#FDCF46" stroke-width="2"/>
<path d="M64.8734 68.8333L98.0539 71.492C99.613 71.617 101.024 72.4645 101.867 73.7824L119.113 100.75C120.128 102.336 120.165 104.358 119.21 105.981L100.22 138.246C99.2867 139.832 97.5568 140.777 95.7175 140.705L63.3411 139.44C61.6966 139.376 60.189 138.506 59.3097 137.115L41.321 108.649C40.3201 107.065 40.2883 105.055 41.2385 103.44L60.1663 71.2807C61.1374 69.6308 62.9652 68.6804 64.8734 68.8333Z" stroke="#FDCF46" stroke-width="2"/>
<path d="M185.235 68.1652L218.416 70.8239C219.975 70.9489 221.386 71.7964 222.229 73.1143L239.475 100.082C240.49 101.668 240.527 103.69 239.572 105.313L220.582 137.578C219.648 139.164 217.919 140.109 216.079 140.037L183.703 138.772C182.058 138.708 180.551 137.838 179.671 136.447L161.683 107.981C160.682 106.397 160.65 104.387 161.6 102.772L180.528 70.6126C181.499 68.9627 183.327 68.0123 185.235 68.1652Z" stroke="#FDCF46" stroke-width="2"/>
<path d="M64.8734 68.8333L98.0539 71.492C99.613 71.6169 101.024 72.4644 101.867 73.7824L119.113 100.75C120.128 102.336 120.165 104.358 119.21 105.981L100.22 138.246C99.2867 139.832 97.5568 140.777 95.7175 140.705L63.3411 139.44C61.6966 139.376 60.189 138.506 59.3097 137.115L41.321 108.649C40.3201 107.065 40.2883 105.055 41.2385 103.44L60.1663 71.2807C61.1374 69.6307 62.9652 68.6804 64.8734 68.8333Z" stroke="#FDCF46" stroke-width="2"/>
<path d="M64.0332 138.252L97.2217 140.809C98.7812 140.93 100.195 141.773 101.042 143.088L118.37 170.002C119.39 171.586 119.434 173.608 118.483 175.233L99.5926 207.556C98.6637 209.145 96.9367 210.096 95.0972 210.029L62.7171 208.864C61.0725 208.804 59.5622 207.939 58.6786 206.551L40.6028 178.14C39.5971 176.559 39.5591 174.549 40.5044 172.931L59.3336 140.714C60.2996 139.061 62.1245 138.105 64.0332 138.252Z" stroke="#FDCF46" stroke-width="2"/>
</svg>
