<svg width="163" height="263" viewBox="0 0 163 263" fill="none" xmlns="http://www.w3.org/2000/svg">
<path d="M38.3638 16.6323L68.3052 2.08526C69.7124 1.40159 71.3584 1.41595 72.7534 2.12407L101.293 16.6108C102.972 17.463 104.029 19.1863 104.029 21.0693V58.5109C104.029 60.3517 103.018 62.0436 101.397 62.9151L72.8551 78.2552C71.4051 79.0345 69.6645 79.0502 68.2007 78.2971L38.2616 62.8955C36.5959 62.0386 35.5488 60.3225 35.5488 58.4493V21.1296C35.5488 19.2153 36.6419 17.4689 38.3638 16.6323Z" stroke="#FDCF46" stroke-width="2"/>
<path d="M107.344 16.6323L137.286 2.08526C138.693 1.40159 140.339 1.41595 141.734 2.12407L170.273 16.6108C171.952 17.463 173.01 19.1863 173.01 21.0693V58.5109C173.01 60.3517 171.998 62.0436 170.377 62.9151L141.836 78.2552C140.386 79.0345 138.645 79.0502 137.181 78.2971L107.242 62.8955C105.576 62.0386 104.529 60.3225 104.529 58.4493V21.1296C104.529 19.2153 105.622 17.4689 107.344 16.6323Z" stroke="#FDCF46" stroke-width="2"/>
<path d="M141.335 77.6323L171.276 63.0853C172.683 62.4016 174.329 62.416 175.724 63.1241L204.263 77.6108C205.942 78.463 207 80.1863 207 82.0693V119.511C207 121.352 205.989 123.044 204.367 123.915L175.826 139.255C174.376 140.034 172.635 140.05 171.171 139.297L141.232 123.896C139.567 123.039 138.52 121.323 138.52 119.449V82.1296C138.52 80.2153 139.613 78.4689 141.335 77.6323Z" stroke="#FDCF46" stroke-width="2"/>
<path d="M4.37358 77.6323L34.315 63.0853C35.7221 62.4016 37.3682 62.416 38.7632 63.1241L67.3024 77.6108C68.9814 78.463 70.0393 80.1863 70.0393 82.0693V119.511C70.0393 121.352 69.0278 123.044 67.4063 123.915L38.8648 139.255C37.4149 140.034 35.6743 140.05 34.2105 139.297L4.27134 123.896C2.60562 123.039 1.55859 121.323 1.55859 119.449L1.55859 82.1296C1.55859 80.2153 2.65167 78.4689 4.37358 77.6323Z" stroke="#FDCF46" stroke-width="2"/>
<path d="M73.3538 77.6323L103.295 63.0853C104.702 62.4016 106.348 62.416 107.743 63.1241L136.283 77.6108C137.962 78.463 139.019 80.1863 139.019 82.0693V119.511C139.019 121.352 138.008 123.044 136.387 123.915L107.845 139.255C106.395 140.034 104.654 140.05 103.191 139.297L73.2516 123.896C71.5858 123.039 70.5388 121.323 70.5388 119.449V82.1296C70.5388 80.2153 71.6319 78.4689 73.3538 77.6323Z" stroke="#FDCF46" stroke-width="2"/>
<path d="M38.3638 138.632L68.3052 124.085C69.7124 123.402 71.3584 123.416 72.7534 124.124L101.293 138.611C102.972 139.463 104.029 141.186 104.029 143.069V180.511C104.029 182.352 103.018 184.044 101.397 184.915L72.8551 200.255C71.4051 201.034 69.6645 201.05 68.2007 200.297L38.2616 184.896C36.5959 184.039 35.5488 182.323 35.5488 180.449V143.13C35.5488 141.215 36.6419 139.469 38.3638 138.632Z" stroke="#FDCF46" stroke-width="2"/>
<path d="M107.344 138.632L137.286 124.085C138.693 123.402 140.339 123.416 141.734 124.124L170.273 138.611C171.952 139.463 173.01 141.186 173.01 143.069V180.511C173.01 182.352 171.998 184.044 170.377 184.915L141.836 200.255C140.386 201.034 138.645 201.05 137.181 200.297L107.242 184.896C105.576 184.039 104.529 182.323 104.529 180.449V143.13C104.529 141.215 105.622 139.469 107.344 138.632Z" stroke="#FDCF46" stroke-width="2"/>
<path d="M141.335 199.632L171.276 185.085C172.683 184.402 174.329 184.416 175.724 185.124L204.263 199.611C205.942 200.463 207 202.186 207 204.069V241.511C207 243.352 205.989 245.044 204.367 245.915L175.826 261.255C174.376 262.034 172.635 262.05 171.171 261.297L141.232 245.896C139.567 245.039 138.52 243.323 138.52 241.449V204.13C138.52 202.215 139.613 200.469 141.335 199.632Z" stroke="#FDCF46" stroke-width="2"/>
<path d="M4.37358 199.632L34.315 185.085C35.7221 184.402 37.3682 184.416 38.7632 185.124L67.3024 199.611C68.9814 200.463 70.0393 202.186 70.0393 204.069V241.511C70.0393 243.352 69.0278 245.044 67.4063 245.915L38.8648 261.255C37.4149 262.034 35.6743 262.05 34.2105 261.297L4.27134 245.896C2.60562 245.039 1.55859 243.323 1.55859 241.449L1.55859 204.13C1.55859 202.215 2.65167 200.469 4.37358 199.632Z" stroke="#FDCF46" stroke-width="2"/>
<path d="M73.3538 199.632L103.295 185.085C104.702 184.402 106.348 184.416 107.743 185.124L136.283 199.611C137.962 200.463 139.019 202.186 139.019 204.069V241.511C139.019 243.352 138.008 245.044 136.387 245.915L107.845 261.255C106.395 262.034 104.654 262.05 103.191 261.297L73.2516 245.896C71.5858 245.039 70.5388 243.323 70.5388 241.449V204.13C70.5388 202.215 71.6319 200.469 73.3538 199.632Z" stroke="#FDCF46" stroke-width="2"/>
</svg>
