<svg width="346" height="264" viewBox="0 0 346 264" fill="none" xmlns="http://www.w3.org/2000/svg">
<path d="M272.976 185.596L243.025 200.144C241.618 200.827 239.972 200.813 238.578 200.105L210.029 185.617C208.35 184.765 207.292 183.042 207.292 181.159V143.718C207.292 141.877 208.303 140.185 209.925 139.313L238.476 123.972C239.926 123.194 241.666 123.178 243.129 123.931L273.078 139.333C274.744 140.19 275.792 141.906 275.792 143.779V181.098C275.792 183.013 274.698 184.759 272.976 185.596Z" stroke="#FDCF46" stroke-width="2"/>
<path d="M170.152 247.227L140.201 261.775C138.794 262.458 137.149 262.444 135.754 261.736L107.205 247.249C105.526 246.397 104.468 244.673 104.468 242.79L104.468 205.349C104.468 203.508 105.479 201.816 107.101 200.945L135.652 185.604C137.102 184.825 138.842 184.809 140.305 185.562L170.255 200.964C171.921 201.821 172.968 203.538 172.968 205.411L172.968 242.73C172.968 244.644 171.874 246.391 170.152 247.227Z" stroke="#FDCF46" stroke-width="2"/>
<path d="M204.976 185.596L175.025 200.144C173.618 200.827 171.972 200.813 170.578 200.105L142.029 185.617C140.35 184.765 139.292 183.042 139.292 181.159V143.718C139.292 141.877 140.303 140.185 141.925 139.313L170.476 123.972C171.926 123.194 173.666 123.178 175.129 123.931L205.078 139.333C206.744 140.19 207.792 141.906 207.792 143.779V181.098C207.792 183.013 206.698 184.759 204.976 185.596Z" stroke="#FDCF46" stroke-width="2"/>
<path d="M306.976 124.596L277.025 139.144C275.618 139.827 273.972 139.813 272.578 139.105L244.029 124.617C242.35 123.765 241.292 122.042 241.292 120.159V82.7178C241.292 80.8768 242.303 79.1847 243.925 78.3133L272.476 62.9725C273.926 62.1936 275.666 62.1779 277.129 62.9305L307.078 78.3329C308.744 79.1897 309.792 80.9059 309.792 82.7793V120.098C309.792 122.013 308.698 123.759 306.976 124.596Z" stroke="#FDCF46" stroke-width="2"/>
<path d="M135.976 185.596L106.025 200.144C104.618 200.827 102.972 200.813 101.578 200.105L73.0289 185.617C71.3496 184.765 70.2915 183.042 70.2915 181.159L70.2915 143.718C70.2915 141.877 71.3032 140.185 72.9249 139.313L101.476 123.972C102.926 123.194 104.666 123.178 106.129 123.931L136.078 139.333C137.744 140.19 138.792 141.906 138.792 143.779V181.098C138.792 183.013 137.698 184.759 135.976 185.596Z" stroke="#FDCF46" stroke-width="2"/>
<path d="M66.976 63.5958L37.0247 78.1436C35.6179 78.8269 33.9723 78.8125 32.5776 78.1048L4.02885 63.6174C2.34956 62.7652 1.2915 61.0418 1.2915 59.1586L1.2915 21.7178C1.2915 19.8768 2.3032 18.1847 3.92493 17.3133L32.4759 1.97249C33.9256 1.19356 35.6657 1.17786 37.1292 1.93051L67.0782 17.3329C68.7442 18.1897 69.7915 19.9059 69.7915 21.7793L69.7915 59.0982C69.7915 61.0128 68.6982 62.7593 66.976 63.5958Z" stroke="#FDCF46" stroke-width="2"/>
<path d="M100.976 124.596L71.0247 139.144C69.6179 139.827 67.9723 139.813 66.5776 139.105L38.0289 124.617C36.3496 123.765 35.2915 122.042 35.2915 120.159L35.2915 82.7178C35.2915 80.8768 36.3032 79.1847 37.9249 78.3133L66.4759 62.9725C67.9256 62.1936 69.6657 62.1779 71.1292 62.9305L101.078 78.3329C102.744 79.1897 103.792 80.9059 103.792 82.7793L103.792 120.098C103.792 122.013 102.698 123.759 100.976 124.596Z" stroke="#FDCF46" stroke-width="2"/>
<path d="M341.976 63.5958L312.025 78.1436C310.618 78.8269 308.972 78.8125 307.578 78.1048L279.029 63.6174C277.35 62.7652 276.292 61.0418 276.292 59.1586V21.7178C276.292 19.8768 277.303 18.1847 278.925 17.3133L307.476 1.97249C308.926 1.19356 310.666 1.17786 312.129 1.93051L342.078 17.3329C343.744 18.1897 344.792 19.9059 344.792 21.7793V59.0982C344.792 61.0128 343.698 62.7593 341.976 63.5958Z" stroke="#FDCF46" stroke-width="2"/>
</svg>
