<svg width="311" height="324" viewBox="0 0 311 324" fill="none" xmlns="http://www.w3.org/2000/svg">
<path d="M37.8155 16.6325L67.7668 2.0847C69.1737 1.40137 70.8192 1.41572 72.214 2.1235L100.763 16.6109C102.442 17.4631 103.5 19.1865 103.5 21.0696V58.5105C103.5 60.3515 102.488 62.0436 100.867 62.915L72.3156 78.2558C70.8659 79.0347 69.1258 79.0504 67.6623 78.2978L37.7133 62.8954C36.0473 62.0386 35 60.3224 35 58.449V21.13C35 19.2154 36.0933 17.469 37.8155 16.6325Z" stroke="#FDCF46" stroke-width="2"/>
<path d="M106.815 16.6325L136.767 2.0847C138.174 1.40137 139.819 1.41572 141.214 2.1235L169.763 16.6109C171.442 17.4631 172.5 19.1865 172.5 21.0696V58.5105C172.5 60.3515 171.488 62.0436 169.867 62.915L141.316 78.2558C139.866 79.0347 138.126 79.0504 136.662 78.2978L106.713 62.8954C105.047 62.0386 104 60.3224 104 58.449V21.13C104 19.2154 105.093 17.469 106.815 16.6325Z" stroke="#FDCF46" stroke-width="2"/>
<path d="M174.815 16.6325L204.767 2.0847C206.174 1.40137 207.819 1.41572 209.214 2.1235L237.763 16.6109C239.442 17.4631 240.5 19.1865 240.5 21.0696V58.5105C240.5 60.3515 239.488 62.0436 237.867 62.915L209.316 78.2558C207.866 79.0347 206.126 79.0504 204.662 78.2978L174.713 62.8954C173.047 62.0386 172 60.3224 172 58.449V21.13C172 19.2154 173.093 17.469 174.815 16.6325Z" stroke="#FDCF46" stroke-width="2"/>
<path d="M3.81548 77.6325L33.7668 63.0847C35.1737 62.4014 36.8192 62.4157 38.214 63.1235L66.7626 77.6109C68.4419 78.4631 69.5 80.1865 69.5 82.0696V119.511C69.5 121.352 68.4883 123.044 66.8666 123.915L38.3156 139.256C36.8659 140.035 35.1258 140.05 33.6623 139.298L3.71326 123.895C2.04726 123.039 1 121.322 1 119.449V82.13C1 80.2154 2.0933 78.469 3.81548 77.6325Z" stroke="#FDCF46" stroke-width="2"/>
<path d="M72.8155 77.6325L102.767 63.0847C104.174 62.4014 105.819 62.4157 107.214 63.1235L135.763 77.6109C137.442 78.4631 138.5 80.1865 138.5 82.0696V119.511C138.5 121.352 137.488 123.044 135.867 123.915L107.316 139.256C105.866 140.035 104.126 140.05 102.662 139.298L72.7133 123.895C71.0473 123.039 70 121.322 70 119.449V82.13C70 80.2154 71.0933 78.469 72.8155 77.6325Z" stroke="#FDCF46" stroke-width="2"/>
<path d="M243.815 16.6325L273.767 2.0847C275.174 1.40137 276.819 1.41572 278.214 2.1235L306.763 16.6109C308.442 17.4631 309.5 19.1865 309.5 21.0696V58.5105C309.5 60.3515 308.488 62.0436 306.867 62.915L278.316 78.2558C276.866 79.0347 275.126 79.0504 273.662 78.2978L243.713 62.8954C242.047 62.0386 241 60.3224 241 58.449V21.13C241 19.2154 242.093 17.469 243.815 16.6325Z" stroke="#FDCF46" stroke-width="2"/>
<path d="M37.8155 138.632L67.7668 124.085C69.1737 123.401 70.8192 123.416 72.214 124.123L100.763 138.611C102.442 139.463 103.5 141.186 103.5 143.07V180.511C103.5 182.352 102.488 184.044 100.867 184.915L72.3156 200.256C70.8659 201.035 69.1258 201.05 67.6623 200.298L37.7133 184.895C36.0473 184.039 35 182.322 35 180.449V143.13C35 141.215 36.0933 139.469 37.8155 138.632Z" stroke="#FDCF46" stroke-width="2"/>
<path d="M3.81548 199.632L33.7668 185.085C35.1737 184.401 36.8192 184.416 38.214 185.123L66.7626 199.611C68.4419 200.463 69.5 202.186 69.5 204.07V241.511C69.5 243.352 68.4883 245.044 66.8666 245.915L38.3156 261.256C36.8659 262.035 35.1258 262.05 33.6623 261.298L3.71326 245.895C2.04726 245.039 1 243.322 1 241.449V204.13C1 202.215 2.0933 200.469 3.81548 199.632Z" stroke="#FDCF46" stroke-width="2"/>
<path d="M37.8155 260.632L67.7668 246.085C69.1737 245.401 70.8192 245.416 72.214 246.123L100.763 260.611C102.442 261.463 103.5 263.186 103.5 265.07V302.511C103.5 304.352 102.488 306.044 100.867 306.915L72.3156 322.256C70.8659 323.035 69.1258 323.05 67.6623 322.298L37.7133 306.895C36.0473 306.039 35 304.322 35 302.449V265.13C35 263.215 36.0933 261.469 37.8155 260.632Z" stroke="#FDCF46" stroke-width="2"/>
<path d="M146.04 50.3003L141.124 36.5686L126.397 37.4013C125.415 39.188 124.267 43.1768 124.35 44.9783C124.465 47.4891 123.518 52.3425 128.068 55.1425C132.236 57.8926 137.455 56.1502 139.824 55.2457C141.523 54.5967 144.769 51.9288 146.04 50.3003Z" fill="#F4D36C"/>
<path d="M125.639 57.4132C125.677 57.0446 127.019 54.3884 127.252 54.3458C127.486 54.3032 129.347 55.5315 129.4 55.7631C129.453 55.9946 127.538 58.2729 127.214 58.4525C126.89 58.6322 126.227 58.3913 126.084 58.2968C125.94 58.2023 125.601 57.7818 125.639 57.4132Z" fill="#64736C"/>
<path d="M140.517 55.0386C140.389 55.0659 135.078 56.9273 134.754 56.5106C134.429 56.0938 124.599 49.8093 124.46 49.7175C124.345 49.6422 124.242 44.2982 124.335 44.1569C124.428 44.0155 140.75 54.989 140.517 55.0386Z" fill="#64736C"/>
<path d="M127.471 35.7743C127.794 35.8887 146.389 48.1554 146.852 48.5644C147.315 48.9735 144.753 51.9492 144.288 52.0483C143.823 52.1474 125.723 39.7975 125.503 39.6523C125.283 39.5072 127.147 35.66 127.471 35.7743Z" fill="#5E7267"/>
<path d="M143.433 25.6819L146.267 27.5522L149.9 30.0538C151.619 28.8846 155.256 26.8019 156.044 27.8247C157.029 29.1032 157.114 30.2064 156.015 30.9476C155.136 31.5406 152.1 31.6457 150.692 31.6241C150.743 32.9842 150.257 36.2806 147.353 38.2182C146.313 37.9465 143.639 37.0107 141.26 35.4412C138.882 33.8717 137.473 32.2507 137.065 31.6363C137.686 28.2321 140.418 26.0417 141.682 25.5631C141.104 24.2835 139.997 21.4659 140.191 20.4331C140.433 19.1421 141.476 18.7938 143.036 19.2013C144.284 19.5274 143.821 23.6576 143.433 25.6819Z" fill="#657373"/>
<path d="M142.577 35.6218C141.453 35.5045 141.479 35.7435 141.284 36.0384C140.992 36.4807 140.55 37.4589 140.542 38.0884C140.533 38.7867 142.02 45.4126 142.713 47.1396C143.405 48.8665 144.017 49.4819 145.241 50.7126C146.373 51.8512 147.316 52.5049 148.831 53.2934C150.49 54.1564 153.605 52.8461 154.473 52.1487C155.279 51.4999 157.099 48.168 156.504 46.2937C155.909 44.4193 149.154 39.5385 148.728 39.2577C148.005 38.7805 144.101 35.7808 142.577 35.6218Z" fill="#E6F1EB"/>
<path d="M144.567 37.9565C143.888 36.2236 142.46 36.1156 141.887 36.1563C141.267 36.1654 141.438 37.1311 141.707 37.9502C141.877 38.4682 144.633 43.9589 147.906 47.0092C151.18 50.0595 153.099 51.7741 153.818 51.6183C154.536 51.4625 154.694 50.2558 154.694 50.2558L148.592 43.8522C148.592 43.8522 145.354 39.9639 144.567 37.9565Z" fill="#BBD4D0"/>
<path d="M141.145 34.6766C141.695 35.6638 141.465 35.7343 141.27 36.0292C140.978 36.4715 140.253 37.2625 139.677 37.5176C139.039 37.8006 132.362 39.0393 130.502 39.0815C128.642 39.1238 127.835 38.8033 126.222 38.1622C124.73 37.5692 123.759 36.9596 122.438 35.8763C120.992 34.6906 120.972 31.311 121.272 30.2392C121.551 29.2422 123.898 26.2585 125.856 26.0688C127.813 25.8791 134.957 30.1702 135.383 30.451C136.106 30.9282 140.399 33.3382 141.145 34.6766Z" fill="#E6F1EB"/>
<path d="M138.216 33.7652C140.076 33.708 140.737 34.9785 140.925 35.5213C141.16 36.0949 140.205 36.3178 139.346 36.3926C138.803 36.44 132.671 36.0654 128.579 34.255C124.487 32.4447 122.156 31.3546 122.017 30.6329C121.878 29.9111 122.925 29.2914 122.925 29.2914L131.212 32.3832C131.212 32.3832 136.061 33.8314 138.216 33.7652Z" fill="#BBD4D0"/>
</svg>
