<svg width="163" height="165" viewBox="0 0 163 165" fill="none" xmlns="http://www.w3.org/2000/svg">
<path d="M40.8806 35.6825L67.4305 15.5872C68.6776 14.6433 70.2945 14.3373 71.8003 14.7603L102.622 23.4185C104.435 23.9278 105.808 25.4125 106.174 27.2597L113.456 63.9856C113.814 65.7914 113.151 67.6479 111.729 68.8181L86.7074 89.419C85.4369 90.465 83.733 90.8188 82.1511 90.3652L49.7783 81.0819C47.9774 80.5655 46.6164 79.0857 46.252 77.2481L38.9937 40.6418C38.6213 38.7638 39.354 36.838 40.8806 35.6825Z" stroke="#FDCF46" stroke-width="2"/>
<path d="M18.4132 102.325L44.9631 82.2297C46.2102 81.2857 47.8271 80.9798 49.3329 81.4028L80.1541 90.0609C81.9671 90.5702 83.3402 92.0549 83.7064 93.9021L90.9885 130.628C91.3465 132.434 90.6833 134.29 89.262 135.461L64.24 156.061C62.9695 157.107 61.2656 157.461 59.6837 157.008L27.3109 147.724C25.51 147.208 24.149 145.728 23.7846 143.891L16.5263 107.284C16.1539 105.406 16.8866 103.48 18.4132 102.325Z" stroke="#FDCF46" stroke-width="2"/>
<path d="M86.0955 88.9048L112.645 68.8095C113.893 67.8656 115.509 67.5596 117.015 67.9826L147.836 76.6408C149.649 77.1501 151.022 78.6348 151.389 80.482L158.671 117.208C159.029 119.014 158.366 120.87 156.944 122.04L131.922 142.641C130.652 143.687 128.948 144.041 127.366 143.587L94.9932 134.304C93.1923 133.788 91.8313 132.308 91.4669 130.47L84.2086 93.8641C83.8362 91.9861 84.5689 90.0603 86.0955 88.9048Z" stroke="#FDCF46" stroke-width="2"/>
</svg>
