<svg width="60" height="60" viewBox="0 0 60 60" fill="none" xmlns="http://www.w3.org/2000/svg">
<path d="M40.0465 32.769L30.2791 25.4989L20.3721 32.8132C20.5097 34.5012 21.5473 37.7911 22.4356 39.0023C23.6738 40.6902 25.2499 44.488 29.7209 44.3474C33.9011 44.3474 36.7448 40.7518 37.983 39.0412C38.8714 37.8138 39.9089 34.4796 40.0465 32.769Z" fill="#F4D36C"/>
<path d="M29.0706 47.0327C28.927 46.7599 28.6397 44.3047 28.7833 44.1683C28.927 44.0319 30.794 44.0319 30.9376 44.1683C31.0812 44.3047 30.794 46.7599 30.6504 47.0327C30.5068 47.3055 29.9323 47.4419 29.7887 47.4419C29.645 47.4419 29.2142 47.3055 29.0706 47.0327Z" fill="#64736C"/>
<path d="M38.3721 38.5803C38.2952 38.6578 35.4419 42.3781 35.0233 42.2375C34.6047 42.0968 24.8372 42.2375 24.6977 42.2375C24.5831 42.2375 22.0465 38.5803 22.0465 38.4396C22.0465 38.299 38.5116 38.4396 38.3721 38.5803Z" fill="#64736C"/>
<path d="M20.3721 31.1942C20.6512 31.1253 39.3012 31.1225 39.8134 31.1942C40.3256 31.266 39.907 34.5012 39.6279 34.7825C39.3488 35.0638 21.0064 34.7825 20.7857 34.7825C20.5651 34.7825 20.093 31.2631 20.3721 31.1942Z" fill="#5E7267"/>
<path d="M26.8724 16.8956L29.7153 16.8956L33.4071 16.9681C34.0697 15.3709 35.6505 12.2635 36.6728 12.6119C37.9507 13.0476 38.5187 13.7736 38.0927 14.79C37.7519 15.6032 35.6789 17.0649 34.685 17.6942C35.3476 18.6138 36.5284 21.121 35.3925 23.7928C34.5405 24.0802 32.2401 24.6549 29.8545 24.6549C27.4688 24.6549 25.7364 24.176 25.1684 23.9365C24.0324 21.2926 24.9317 18.5241 25.5944 17.6141C24.6004 16.9914 22.5272 15.5449 22.1864 14.7403C21.7604 13.7344 22.3284 13.016 23.6064 12.5849C24.6288 12.2401 26.2098 15.315 26.8724 16.8956Z" fill="#657373"/>
<path d="M30.8579 24.1778C30.0184 24.6106 30.1465 24.7646 30.1465 25.058C30.1465 25.4982 30.2888 26.3784 30.5733 26.8186C30.889 27.3068 34.9834 31.2199 36.2637 32.1002C37.5441 32.9804 38.2554 33.1271 39.678 33.4206C40.994 33.692 41.9542 33.714 43.3768 33.5673C44.9339 33.4067 46.5065 31.0732 46.791 30.1929C47.0557 29.3741 46.791 26.2317 45.5107 25.2047C44.2303 24.1778 37.2596 23.8843 36.8328 23.8843C36.1074 23.8843 31.9959 23.5909 30.8579 24.1778Z" fill="#E6F1EB"/>
<path d="M33.325 24.8859C32.0514 23.9953 31.0037 24.5736 30.6221 24.8639C30.1931 25.1539 30.7577 25.7453 31.3233 26.1901C31.6811 26.4714 36.1387 29.0169 39.8328 29.6338C43.527 30.2508 45.6586 30.5616 46.0887 30.1249C46.5189 29.6883 46.0728 28.7796 46.0728 28.7796L38.8561 27.1317C38.8561 27.1317 34.8003 25.9177 33.325 24.8859Z" fill="#BBD4D0"/>
<path d="M29.4212 24.1778C30.2606 24.6106 30.1325 24.7646 30.1325 25.058C30.1325 25.4982 29.9903 26.3784 29.7058 26.8186C29.3901 27.3068 25.2957 31.2199 24.0153 32.1002C22.735 32.9804 22.0237 33.1271 20.6011 33.4206C19.2851 33.692 18.3249 33.714 16.9023 33.5673C15.3452 33.4067 13.7726 31.0732 13.4881 30.1929C13.2234 29.3741 13.4881 26.2317 14.7684 25.2047C16.0488 24.1778 23.0195 23.8843 23.4463 23.8843C24.1717 23.8843 28.2832 23.5909 29.4212 24.1778Z" fill="#E6F1EB"/>
<path d="M26.9541 24.8859C28.2276 23.9953 29.2753 24.5736 29.6569 24.8639C30.086 25.1539 29.5214 25.7453 28.9558 26.1901C28.598 26.4714 24.1404 29.0169 20.4462 29.6338C16.7521 30.2508 14.6205 30.5616 14.1904 30.1249C13.7602 29.6883 14.2063 28.7796 14.2063 28.7796L21.4229 27.1317C21.4229 27.1317 25.4788 25.9177 26.9541 24.8859Z" fill="#BBD4D0"/>
<circle cx="30" cy="30" r="29.25" stroke="#F4D36C" stroke-width="1.5"/>
</svg>
