<svg width="32" height="30" viewBox="0 0 32 30" fill="none" xmlns="http://www.w3.org/2000/svg">
<path d="M13.1445 23.875L19.6573 15.125L13.1048 6.25C11.5927 6.37324 8.64545 7.30274 7.56048 8.09859C6.04839 9.20775 2.64617 10.6197 2.77218 14.625C2.77218 18.3697 5.99323 20.9173 7.52565 22.0264C8.62519 22.8223 11.6121 23.7518 13.1445 23.875Z" fill="#F4D36C"/>
<path d="M0.36657 14.0424C0.610949 13.9137 2.81036 13.6564 2.93255 13.7851C3.05474 13.9137 3.05474 15.5863 2.93255 15.7149C2.81036 15.8436 0.610949 15.5863 0.36657 15.4576C0.122189 15.329 0 14.8143 0 14.6857C0 14.557 0.122189 14.171 0.36657 14.0424Z" fill="#64736C"/>
<path d="M7.93851 22.375C7.86904 22.3061 4.53629 19.75 4.6623 19.375C4.78831 19 4.6623 10.25 4.6623 10.125C4.6623 10.0223 7.93851 7.75 8.06452 7.75C8.19053 7.75 8.06452 22.5 7.93851 22.375Z" fill="#64736C"/>
<path d="M14.5552 6.25C14.6169 6.5 14.6195 23.2073 14.5552 23.6662C14.4909 24.125 11.5927 23.75 11.3407 23.5C11.0887 23.25 11.3407 6.81819 11.3407 6.62056C11.3407 6.42293 14.4935 6 14.5552 6.25Z" fill="#5E7267"/>
<path d="M27.3643 12.0732L27.3643 14.62L27.2994 17.9272C28.7303 18.5208 31.514 19.9369 31.2018 20.8527C30.8116 21.9975 30.1612 22.5063 29.2506 22.1247C28.5222 21.8194 27.2127 19.9623 26.649 19.072C25.8252 19.6656 23.5791 20.7234 21.1856 19.7058C20.9282 18.9425 20.4133 16.8817 20.4133 14.7446C20.4133 12.6075 20.8424 11.0555 21.0569 10.5467C23.4254 9.52902 25.9055 10.3347 26.7207 10.9283C27.2785 10.0379 28.5743 8.1806 29.2952 7.87529C30.1963 7.49366 30.8399 8.0025 31.226 9.14739C31.535 10.0633 28.7803 11.4796 27.3643 12.0732Z" fill="#657373"/>
<path d="M20.8408 15.6435C20.453 14.8915 20.3151 15.0063 20.0522 15.0063C19.6579 15.0063 18.8694 15.1337 18.4751 15.3886C18.0376 15.6714 14.5322 19.3393 13.7436 20.4863C12.9551 21.6332 12.8236 22.2704 12.5608 23.5449C12.3176 24.7238 12.2979 25.5839 12.4293 26.8583C12.5732 28.2532 14.6636 29.6621 15.4522 29.9169C16.1857 30.154 19.0008 29.9169 19.9208 28.77C20.8408 27.623 21.1036 21.3784 21.1036 20.996C21.1036 20.3462 21.3665 16.663 20.8408 15.6435Z" fill="#E6F1EB"/>
<path d="M20.2064 17.8536C21.0043 16.7127 20.4862 15.7742 20.2261 15.4323C19.9663 15.048 19.4365 15.5537 19.0381 16.0605C18.7861 16.381 16.5057 20.3742 15.953 23.6836C15.4004 26.9929 15.122 28.9025 15.5131 29.2878C15.9043 29.6731 16.7183 29.2735 16.7183 29.2735L18.1945 22.8086C18.1945 22.8086 19.2821 19.1753 20.2064 17.8536Z" fill="#BBD4D0"/>
<path d="M20.8408 14.3565C20.453 15.1085 20.3151 14.9937 20.0522 14.9937C19.6579 14.9937 18.8694 14.8663 18.4751 14.6114C18.0376 14.3286 14.5322 10.6607 13.7436 9.51374C12.9551 8.36676 12.8236 7.72956 12.5608 6.45514C12.3176 5.27621 12.2979 4.41608 12.4293 3.14166C12.5732 1.74676 14.6636 0.337946 15.4522 0.0830616C16.1857 -0.154031 19.0008 0.0830593 19.9208 1.23003C20.8408 2.37701 21.1036 8.62164 21.1036 9.00397C21.1036 9.65379 21.3665 13.337 20.8408 14.3565Z" fill="#E6F1EB"/>
<path d="M20.2064 12.1464C21.0043 13.2873 20.4862 14.2258 20.2261 14.5677C19.9663 14.952 19.4365 14.4463 19.0381 13.9395C18.7861 13.6191 16.5057 9.62577 15.953 6.31642C15.4004 3.00707 15.122 1.09751 15.5131 0.712188C15.9043 0.326861 16.7183 0.726495 16.7183 0.726495L18.1945 7.19138C18.1945 7.19138 19.2821 10.8247 20.2064 12.1464Z" fill="#BBD4D0"/>
</svg>
