<svg width="214" height="75" viewBox="0 0 214 75" fill="none" xmlns="http://www.w3.org/2000/svg">
<path d="M50.0581 40.9612L37.8488 31.8736L25.4651 41.0165C25.637 43.1264 26.934 47.2389 28.0445 48.7528C29.5922 50.8627 31.5624 55.61 37.1511 55.4342C42.3763 55.4342 45.931 50.9397 47.4787 48.8014C48.5891 47.2672 49.8861 43.0994 50.0581 40.9612Z" fill="#F4D36C"/>
<path d="M36.3382 58.7908C36.1586 58.4498 35.7996 55.3809 35.9791 55.2104C36.1586 55.0399 38.4924 55.0399 38.672 55.2104C38.8515 55.3809 38.4924 58.4498 38.3129 58.7908C38.1334 59.1318 37.4153 59.3023 37.2358 59.3023C37.0563 59.3023 36.5177 59.1318 36.3382 58.7908Z" fill="#64736C"/>
<path d="M47.9651 48.2253C47.8689 48.3223 44.3023 52.9726 43.779 52.7968C43.2558 52.621 31.0465 52.7968 30.872 52.7968C30.7288 52.7968 27.5581 48.2253 27.5581 48.0495C27.5581 47.8737 48.1395 48.0495 47.9651 48.2253Z" fill="#64736C"/>
<path d="M25.4651 38.9927C25.8139 38.9066 49.1264 38.9031 49.7667 38.9927C50.4069 39.0824 49.8837 43.1264 49.5348 43.478C49.186 43.8297 26.2579 43.478 25.9821 43.478C25.7064 43.478 25.1162 39.0789 25.4651 38.9927Z" fill="#5E7267"/>
<path d="M33.5905 21.1195L37.1441 21.1195L41.7588 21.2101C42.5871 19.2135 44.5631 15.3293 45.841 15.7649C47.4384 16.3094 48.1483 17.2169 47.6158 18.4875C47.1899 19.5039 44.5986 21.3311 43.3562 22.1176C44.1844 23.2672 45.6605 26.4012 44.2406 29.7409C43.1756 30.1002 40.3001 30.8186 37.318 30.8186C34.336 30.8186 32.1705 30.2199 31.4605 29.9206C30.0404 26.6157 31.1646 23.1551 31.993 22.0176C30.7505 21.2392 28.1589 19.4311 27.7329 18.4253C27.2004 17.168 27.9104 16.2699 29.5079 15.7311C30.786 15.3 32.7621 19.1438 33.5905 21.1195Z" fill="#657373"/>
<path d="M38.5723 30.2222C37.523 30.7632 37.6831 30.9557 37.6831 31.3225C37.6831 31.8727 37.861 32.973 38.2166 33.5232C38.6112 34.1335 43.7292 39.0248 45.3296 40.1252C46.9301 41.2255 47.8192 41.4089 49.5974 41.7757C51.2425 42.115 52.4426 42.1424 54.2209 41.959C56.1673 41.7583 58.1331 38.8414 58.4887 37.7411C58.8195 36.7176 58.4887 32.7896 56.8883 31.5059C55.2879 30.2222 46.5744 29.8554 46.0409 29.8554C45.1342 29.8554 39.9949 29.4886 38.5723 30.2222Z" fill="#E6F1EB"/>
<path d="M41.6562 31.1074C40.0642 29.9941 38.7546 30.717 38.2776 31.0799C37.7414 31.4423 38.447 32.1816 39.1541 32.7376C39.6013 33.0892 45.1733 36.2711 49.791 37.0422C54.4087 37.8134 57.0732 38.2019 57.6109 37.6561C58.1485 37.1103 57.5909 35.9744 57.5909 35.9744L48.5701 33.9146C48.5701 33.9146 43.5003 32.3971 41.6562 31.1074Z" fill="#BBD4D0"/>
<path d="M36.7765 30.2222C37.8257 30.7632 37.6656 30.9557 37.6656 31.3225C37.6656 31.8727 37.4878 32.973 37.1321 33.5232C36.7376 34.1335 31.6196 39.0248 30.0191 40.1252C28.4187 41.2255 27.5296 41.4089 25.7513 41.7757C24.1063 42.115 22.9061 42.1424 21.1279 41.959C19.1815 41.7583 17.2157 38.8414 16.86 37.7411C16.5292 36.7176 16.86 32.7896 18.4605 31.5059C20.0609 30.2222 28.7743 29.8554 29.3078 29.8554C30.2145 29.8554 35.3539 29.4886 36.7765 30.2222Z" fill="#E6F1EB"/>
<path d="M33.6925 31.1074C35.2845 29.9941 36.5941 30.717 37.0711 31.0799C37.6074 31.4423 36.9017 32.1816 36.1947 32.7376C35.7475 33.0892 30.1755 36.2711 25.5578 37.0422C20.9401 37.8134 18.2756 38.2019 17.7379 37.6561C17.2002 37.1103 17.7579 35.9744 17.7579 35.9744L26.7786 33.9146C26.7786 33.9146 31.8484 32.3971 33.6925 31.1074Z" fill="#BBD4D0"/>
<circle cx="37.5" cy="37.5" r="36.5" stroke="#F4D36C" stroke-width="2"/>
<path d="M93.5703 27.7031V29.6719H87.6797V27.7031H93.5703ZM88.4844 23.125V34.5H85.9375V23.125H88.4844ZM95.3281 23.125V34.5H92.7891V23.125H95.3281ZM99.9297 23.125V34.5H97.3906V23.125H99.9297ZM106.188 31.9766L108.719 23.125H111.555L107.656 34.5H105.805L106.188 31.9766ZM103.883 23.125L106.406 31.9766L106.805 34.5H104.93L101.055 23.125H103.883ZM120.234 32.5312V34.5H114.18V32.5312H120.234ZM115.047 23.125V34.5H112.5V23.125H115.047ZM119.453 27.7031V29.6094H114.18V27.7031H119.453ZM120.242 23.125V25.1016H114.18V23.125H120.242ZM132.008 30.6875H134.539C134.497 31.4688 134.284 32.1589 133.898 32.7578C133.518 33.3516 132.99 33.8177 132.312 34.1562C131.635 34.4896 130.831 34.6562 129.898 34.6562C129.154 34.6562 128.487 34.5286 127.898 34.2734C127.31 34.0182 126.81 33.6536 126.398 33.1797C125.992 32.7005 125.68 32.125 125.461 31.4531C125.247 30.776 125.141 30.013 125.141 29.1641V28.4688C125.141 27.6198 125.253 26.8568 125.477 26.1797C125.701 25.5026 126.021 24.9245 126.438 24.4453C126.854 23.9661 127.354 23.599 127.938 23.3438C128.521 23.0885 129.172 22.9609 129.891 22.9609C130.859 22.9609 131.677 23.1354 132.344 23.4844C133.01 23.8333 133.526 24.3125 133.891 24.9219C134.26 25.5312 134.482 26.2266 134.555 27.0078H132.016C131.995 26.5651 131.911 26.1927 131.766 25.8906C131.62 25.5833 131.396 25.3516 131.094 25.1953C130.792 25.0391 130.391 24.9609 129.891 24.9609C129.526 24.9609 129.206 25.0286 128.93 25.1641C128.659 25.2995 128.432 25.5104 128.25 25.7969C128.073 26.0833 127.94 26.4479 127.852 26.8906C127.763 27.3281 127.719 27.849 127.719 28.4531V29.1641C127.719 29.763 127.758 30.2812 127.836 30.7188C127.914 31.1562 128.039 31.5182 128.211 31.8047C128.388 32.0911 128.615 32.3047 128.891 32.4453C129.167 32.5859 129.503 32.6562 129.898 32.6562C130.352 32.6562 130.729 32.5859 131.031 32.4453C131.333 32.2995 131.565 32.0807 131.727 31.7891C131.888 31.4974 131.982 31.1302 132.008 30.6875ZM135.953 23.125H140.32C141.19 23.125 141.943 23.2552 142.578 23.5156C143.219 23.776 143.711 24.1615 144.055 24.6719C144.398 25.1823 144.57 25.8125 144.57 26.5625C144.57 27.1875 144.469 27.7188 144.266 28.1562C144.062 28.5938 143.776 28.9557 143.406 29.2422C143.042 29.5286 142.615 29.7604 142.125 29.9375L141.297 30.3906H137.578L137.562 28.4141H140.328C140.708 28.4141 141.023 28.3464 141.273 28.2109C141.523 28.0755 141.711 27.8854 141.836 27.6406C141.966 27.3906 142.031 27.099 142.031 26.7656C142.031 26.4219 141.966 26.125 141.836 25.875C141.706 25.625 141.513 25.4349 141.258 25.3047C141.008 25.1693 140.695 25.1016 140.32 25.1016H138.5V34.5H135.953V23.125ZM142.25 34.5L139.695 29.4453L142.383 29.4375L144.977 34.3828V34.5H142.25ZM154.031 32.5312V34.5H147.977V32.5312H154.031ZM148.844 23.125V34.5H146.297V23.125H148.844ZM153.25 27.7031V29.6094H147.977V27.7031H153.25ZM154.039 23.125V25.1016H147.977V23.125H154.039ZM160.008 25.2891L157.07 34.5H154.352L158.562 23.125H160.281L160.008 25.2891ZM162.445 34.5L159.5 25.2891L159.195 23.125H160.938L165.164 34.5H162.445ZM162.32 30.2656V32.2344H156.391V30.2656H162.32ZM170.453 23.125V34.5H167.914V23.125H170.453ZM173.914 23.125V25.1016H164.523V23.125H173.914ZM177.883 23.125V34.5H175.344V23.125H177.883ZM184.141 31.9766L186.672 23.125H189.508L185.609 34.5H183.758L184.141 31.9766ZM181.836 23.125L184.359 31.9766L184.758 34.5H182.883L179.008 23.125H181.836ZM198.188 32.5312V34.5H192.133V32.5312H198.188ZM193 23.125V34.5H190.453V23.125H193ZM197.406 27.7031V29.6094H192.133V27.7031H197.406ZM198.195 23.125V25.1016H192.133V23.125H198.195ZM91.2344 45.125V56.5H88.6953V45.125H91.2344ZM94.6953 45.125V47.1016H85.3047V45.125H94.6953ZM103.688 54.5312V56.5H97.6328V54.5312H103.688ZM98.5 45.125V56.5H95.9531V45.125H98.5ZM102.906 49.7031V51.6094H97.6328V49.7031H102.906ZM103.695 45.125V47.1016H97.6328V45.125H103.695ZM107.094 45.125L109.094 49L111.094 45.125H114L110.766 50.7656L114.086 56.5H111.156L109.094 52.5547L107.039 56.5H104.102L107.43 50.7656L104.188 45.125H107.094ZM120.422 45.125V56.5H117.883V45.125H120.422ZM123.883 45.125V47.1016H114.492V45.125H123.883ZM127.852 45.125V56.5H125.312V45.125H127.852ZM137.328 54.5312V56.5H131.586V54.5312H137.328ZM132.453 45.125V56.5H129.906V45.125H132.453ZM146.312 54.5312V56.5H140.258V54.5312H146.312ZM141.125 45.125V56.5H138.578V45.125H141.125ZM145.531 49.7031V51.6094H140.258V49.7031H145.531ZM146.32 45.125V47.1016H140.258V45.125H146.32ZM153.461 53.5C153.461 53.3073 153.432 53.1354 153.375 52.9844C153.318 52.8281 153.214 52.6849 153.062 52.5547C152.911 52.4245 152.698 52.2943 152.422 52.1641C152.146 52.0286 151.784 51.8906 151.336 51.75C150.826 51.5833 150.339 51.3958 149.875 51.1875C149.417 50.974 149.008 50.7266 148.648 50.4453C148.289 50.1641 148.005 49.8359 147.797 49.4609C147.594 49.0859 147.492 48.6484 147.492 48.1484C147.492 47.6641 147.599 47.2266 147.812 46.8359C148.026 46.4453 148.326 46.112 148.711 45.8359C149.096 45.5547 149.549 45.3411 150.07 45.1953C150.591 45.0443 151.164 44.9688 151.789 44.9688C152.622 44.9688 153.354 45.1172 153.984 45.4141C154.62 45.7057 155.115 46.1172 155.469 46.6484C155.823 47.1745 156 47.7865 156 48.4844H153.469C153.469 48.1771 153.404 47.9062 153.273 47.6719C153.148 47.4323 152.956 47.2448 152.695 47.1094C152.44 46.974 152.12 46.9062 151.734 46.9062C151.359 46.9062 151.044 46.9635 150.789 47.0781C150.539 47.1875 150.349 47.3385 150.219 47.5312C150.094 47.724 150.031 47.9349 150.031 48.1641C150.031 48.3464 150.078 48.513 150.172 48.6641C150.271 48.8099 150.411 48.9479 150.594 49.0781C150.781 49.2031 151.01 49.3229 151.281 49.4375C151.552 49.5521 151.862 49.6615 152.211 49.7656C152.82 49.9583 153.359 50.1719 153.828 50.4062C154.302 50.6406 154.701 50.9062 155.023 51.2031C155.346 51.5 155.589 51.8359 155.75 52.2109C155.917 52.5859 156 53.0104 156 53.4844C156 53.9896 155.901 54.4375 155.703 54.8281C155.51 55.2188 155.229 55.5521 154.859 55.8281C154.495 56.099 154.057 56.3047 153.547 56.4453C153.036 56.5859 152.466 56.6562 151.836 56.6562C151.263 56.6562 150.698 56.5833 150.141 56.4375C149.583 56.2865 149.078 56.0573 148.625 55.75C148.177 55.4427 147.818 55.0521 147.547 54.5781C147.281 54.099 147.148 53.5312 147.148 52.875H149.695C149.695 53.2188 149.745 53.5104 149.844 53.75C149.943 53.9844 150.083 54.1745 150.266 54.3203C150.453 54.4661 150.68 54.5703 150.945 54.6328C151.211 54.6953 151.508 54.7266 151.836 54.7266C152.216 54.7266 152.523 54.6745 152.758 54.5703C152.997 54.4609 153.174 54.3125 153.289 54.125C153.404 53.9375 153.461 53.7292 153.461 53.5ZM170.648 50.4922V55.0781C170.461 55.2917 170.174 55.5208 169.789 55.7656C169.409 56.0104 168.922 56.2214 168.328 56.3984C167.734 56.5703 167.026 56.6562 166.203 56.6562C165.458 56.6562 164.781 56.5365 164.172 56.2969C163.562 56.0521 163.039 55.6953 162.602 55.2266C162.164 54.7526 161.826 54.1745 161.586 53.4922C161.352 52.8099 161.234 52.0286 161.234 51.1484V50.4766C161.234 49.5964 161.352 48.8151 161.586 48.1328C161.82 47.4505 162.151 46.875 162.578 46.4062C163.005 45.9323 163.513 45.5729 164.102 45.3281C164.69 45.0833 165.341 44.9609 166.055 44.9609C167.07 44.9609 167.901 45.125 168.547 45.4531C169.193 45.776 169.682 46.224 170.016 46.7969C170.354 47.3698 170.562 48.0286 170.641 48.7734H168.188C168.135 48.3932 168.031 48.0651 167.875 47.7891C167.724 47.513 167.508 47.3021 167.227 47.1562C166.945 47.0052 166.581 46.9297 166.133 46.9297C165.773 46.9297 165.448 47.0052 165.156 47.1562C164.87 47.3021 164.628 47.5234 164.43 47.8203C164.232 48.1172 164.081 48.487 163.977 48.9297C163.872 49.3672 163.82 49.8776 163.82 50.4609V51.1484C163.82 51.7318 163.872 52.2448 163.977 52.6875C164.086 53.1302 164.245 53.5 164.453 53.7969C164.661 54.0885 164.924 54.3099 165.242 54.4609C165.565 54.612 165.94 54.6875 166.367 54.6875C166.701 54.6875 166.982 54.6615 167.211 54.6094C167.44 54.5521 167.628 54.4818 167.773 54.3984C167.919 54.3099 168.029 54.2292 168.102 54.1562V52.2656H166.078V50.4922H170.648ZM172.391 45.125H176.758C177.628 45.125 178.38 45.2552 179.016 45.5156C179.656 45.776 180.148 46.1615 180.492 46.6719C180.836 47.1823 181.008 47.8125 181.008 48.5625C181.008 49.1875 180.906 49.7188 180.703 50.1562C180.5 50.5938 180.214 50.9557 179.844 51.2422C179.479 51.5286 179.052 51.7604 178.562 51.9375L177.734 52.3906H174.016L174 50.4141H176.766C177.146 50.4141 177.461 50.3464 177.711 50.2109C177.961 50.0755 178.148 49.8854 178.273 49.6406C178.404 49.3906 178.469 49.099 178.469 48.7656C178.469 48.4219 178.404 48.125 178.273 47.875C178.143 47.625 177.951 47.4349 177.695 47.3047C177.445 47.1693 177.133 47.1016 176.758 47.1016H174.938V56.5H172.391V45.125ZM178.688 56.5L176.133 51.4453L178.82 51.4375L181.414 56.3828V56.5H178.688ZM192.219 50.5625V51.0703C192.219 51.9349 192.099 52.7109 191.859 53.3984C191.625 54.0859 191.289 54.6719 190.852 55.1562C190.419 55.6406 189.904 56.013 189.305 56.2734C188.711 56.5286 188.052 56.6562 187.328 56.6562C186.604 56.6562 185.943 56.5286 185.344 56.2734C184.745 56.013 184.224 55.6406 183.781 55.1562C183.344 54.6719 183.005 54.0859 182.766 53.3984C182.526 52.7109 182.406 51.9349 182.406 51.0703V50.5625C182.406 49.6979 182.526 48.9219 182.766 48.2344C183.005 47.5417 183.341 46.9531 183.773 46.4688C184.211 45.9844 184.729 45.6146 185.328 45.3594C185.927 45.099 186.589 44.9688 187.312 44.9688C188.036 44.9688 188.698 45.099 189.297 45.3594C189.896 45.6146 190.411 45.9844 190.844 46.4688C191.281 46.9531 191.62 47.5417 191.859 48.2344C192.099 48.9219 192.219 49.6979 192.219 50.5625ZM189.648 51.0703V50.5469C189.648 49.9688 189.596 49.4583 189.492 49.0156C189.388 48.5677 189.237 48.1927 189.039 47.8906C188.841 47.5885 188.596 47.362 188.305 47.2109C188.013 47.0547 187.682 46.9766 187.312 46.9766C186.927 46.9766 186.591 47.0547 186.305 47.2109C186.018 47.362 185.776 47.5885 185.578 47.8906C185.385 48.1927 185.237 48.5677 185.133 49.0156C185.034 49.4583 184.984 49.9688 184.984 50.5469V51.0703C184.984 51.6432 185.034 52.1536 185.133 52.6016C185.237 53.0443 185.388 53.4193 185.586 53.7266C185.784 54.0339 186.026 54.2656 186.312 54.4219C186.604 54.5781 186.943 54.6562 187.328 54.6562C187.698 54.6562 188.026 54.5781 188.312 54.4219C188.604 54.2656 188.849 54.0339 189.047 53.7266C189.245 53.4193 189.393 53.0443 189.492 52.6016C189.596 52.1536 189.648 51.6432 189.648 51.0703ZM200.008 45.125H202.555V52.5938C202.555 53.4792 202.367 54.224 201.992 54.8281C201.622 55.4323 201.107 55.888 200.445 56.1953C199.784 56.5026 199.018 56.6562 198.148 56.6562C197.273 56.6562 196.503 56.5026 195.836 56.1953C195.174 55.888 194.654 55.4323 194.273 54.8281C193.898 54.224 193.711 53.4792 193.711 52.5938V45.125H196.266V52.5938C196.266 53.0833 196.339 53.4844 196.484 53.7969C196.635 54.1042 196.852 54.3307 197.133 54.4766C197.414 54.6172 197.753 54.6875 198.148 54.6875C198.544 54.6875 198.88 54.6172 199.156 54.4766C199.438 54.3307 199.648 54.1042 199.789 53.7969C199.935 53.4844 200.008 53.0833 200.008 52.5938V45.125ZM208.859 52.5469H206V50.5703H208.859C209.281 50.5703 209.62 50.5 209.875 50.3594C210.135 50.2188 210.326 50.026 210.445 49.7812C210.57 49.5312 210.633 49.25 210.633 48.9375C210.633 48.6146 210.57 48.3151 210.445 48.0391C210.326 47.7578 210.135 47.5312 209.875 47.3594C209.62 47.1875 209.281 47.1016 208.859 47.1016H206.922V56.5H204.375V45.125H208.859C209.766 45.125 210.542 45.2891 211.188 45.6172C211.839 45.9453 212.336 46.3958 212.68 46.9688C213.029 47.5365 213.203 48.1875 213.203 48.9219C213.203 49.6562 213.029 50.2943 212.68 50.8359C212.336 51.3776 211.839 51.7995 211.188 52.1016C210.542 52.3984 209.766 52.5469 208.859 52.5469Z" fill="#817F7A"/>
</svg>
