<svg width="182" height="183" viewBox="0 0 182 183" fill="none" xmlns="http://www.w3.org/2000/svg">
<path d="M41.7186 53.2026L63.6376 28.1444C64.6676 26.9668 66.1892 26.3392 67.7495 26.4483L99.6756 28.68C101.554 28.8113 103.199 29.9869 103.932 31.7214L118.502 66.2095C119.218 67.9053 118.945 69.8577 117.791 71.2918L97.4698 96.5354C96.4376 97.8176 94.8406 98.5098 93.1994 98.3861L59.6278 95.8567C57.76 95.716 56.1277 94.5428 55.3987 92.8172L40.8758 58.4415C40.1308 56.678 40.458 54.6437 41.7186 53.2026Z" stroke="#FDCF46" stroke-width="2"/>
<path d="M33.2266 123.016L55.1456 97.9573C56.1756 96.7797 57.6972 96.1521 59.2576 96.2612L91.1836 98.493C93.0619 98.6242 94.707 99.7998 95.4398 101.534L110.01 136.022C110.726 137.718 110.453 139.671 109.299 141.105L88.9779 166.348C87.9457 167.631 86.3486 168.323 84.7075 168.199L51.1359 165.67C49.2681 165.529 47.6357 164.356 46.9067 162.63L32.3839 128.254C31.6388 126.491 31.9661 124.457 33.2266 123.016Z" stroke="#FDCF46" stroke-width="2"/>
<path d="M96.7663 96.1564L118.685 71.0982C119.715 69.9207 121.237 69.2931 122.797 69.4022L154.723 71.6339C156.602 71.7652 158.247 72.9407 158.979 74.6753L173.55 109.163C174.266 110.859 173.993 112.812 172.838 114.246L152.518 139.489C151.485 140.772 149.888 141.464 148.247 141.34L114.676 138.811C112.808 138.67 111.175 137.497 110.446 135.771L95.9235 101.395C95.1785 99.6318 95.5058 97.5975 96.7663 96.1564Z" stroke="#FDCF46" stroke-width="2"/>
</svg>
